<?xml version="1.0" encoding="UTF-8"?>
<svg width="24px" height="24px" viewBox="0 0 24 24" version="1.1" xmlns="http://www.w3.org/2000/svg" xmlns:xlink="http://www.w3.org/1999/xlink">
    <!-- Generator: Sketch 55.2 (78181) - https://sketchapp.com -->
    <title>icon_head</title>
    <desc>Created with Sketch.</desc>
    <g id="页面1" stroke="none" stroke-width="1" fill="none" fill-rule="evenodd">
        <g id="管理员管理备份-3" transform="translate(-1117.000000, -21.000000)" stroke="#3484FE" stroke-width="1.2">
            <g id="icon_head" transform="translate(1117.000000, 21.000000)">
                <path d="M15.0065687,13.0832735 C14.0898584,13.6247253 13.0459638,13.9153238 11.9595356,13.9153238 C10.8772165,13.9153238 9.83718834,13.6270639 8.92392815,13.0900769 C6.899307,14.2132971 5.6,16.3791251 5.6,18.7837686 C5.6,19.6129107 8.40826103,20.4052285 11.9692135,20.3999738 C15.5201858,20.3947339 18.3401977,19.5963266 18.3401978,18.7840053 C18.3392464,16.3722171 17.0362219,14.2034409 15.0065687,13.0832735 Z M7.87388566,7.76237272 C7.87388566,10.062809 9.70448866,11.9225216 11.9595356,11.9225216 C14.2145825,11.9225216 16.0451855,10.062809 16.0451855,7.76237272 C16.0451855,5.4607204 14.2144768,3.6 11.9595356,3.6 C9.7049943,3.6 7.87388566,5.461427 7.87388566,7.76237272 Z" id="形状"></path>
            </g>
        </g>
    </g>
</svg>